<?xml version="1.0" encoding="utf-8"?>
<!-- Generator: Adobe Illustrator 26.5.0, SVG Export Plug-In . SVG Version: 6.00 Build 0)  -->
<svg version="1.1" id="Layer_1" xmlns="http://www.w3.org/2000/svg" xmlns:xlink="http://www.w3.org/1999/xlink" x="0px" y="0px"
	 viewBox="0 0 36.9 10" style="enable-background:new 0 0 36.9 10;" xml:space="preserve">
<style type="text/css">
	.st0{fill:#59297F;}
	.st1{fill-rule:evenodd;clip-rule:evenodd;fill:#59297F;}
</style>
<path class="st0" d="M16.4,6.9c0,0.3-0.1,0.7-0.2,0.9c-0.1,0.3-0.3,0.5-0.6,0.7c-0.2,0.2-0.5,0.3-0.8,0.4c-0.3,0.1-0.7,0.2-1,0.2
	H9.7V0.6h4.4c0.3,0,0.6,0.1,0.8,0.2s0.4,0.3,0.6,0.5s0.3,0.4,0.4,0.7S16,2.5,16,2.8c0,0.4-0.1,0.8-0.3,1.2c-0.2,0.3-0.5,0.5-0.9,0.7
	c0.5,0.1,0.9,0.4,1.2,0.8C16.3,5.9,16.4,6.3,16.4,6.9z M15,6.6c0-0.2,0-0.3-0.1-0.5c0-0.1-0.1-0.3-0.2-0.4c-0.1-0.1-0.2-0.2-0.4-0.3
	S14,5.3,13.9,5.3h-2.8v2.6h2.7c0.2,0,0.3,0,0.5-0.1s0.3-0.2,0.4-0.3c0.1-0.1,0.2-0.2,0.2-0.4C15,7,15,6.8,15,6.6z M11.1,1.7v2.5h2.5
	c0.2,0,0.3,0,0.5-0.1c0,0,0.2-0.1,0.3-0.2c0.1-0.1,0.2-0.2,0.3-0.4c0-0.2,0-0.3,0-0.5c0-0.4-0.1-0.7-0.3-0.9s-0.5-0.4-0.8-0.4H11.1z
	 M19.3,9.2c-0.3,0-0.6,0-0.9-0.1C18.2,9,18,8.8,17.8,8.6c-0.2-0.1-0.3-0.3-0.4-0.6c-0.2-0.2-0.2-0.5-0.2-0.8s0.1-0.6,0.2-0.8
	c0.1-0.2,0.3-0.4,0.5-0.6c0.2-0.2,0.5-0.3,0.8-0.4c0.3-0.1,0.7-0.1,1.1-0.1c0.3,0,0.6,0,0.9,0.1c0.3,0,0.5,0.1,0.8,0.2V5.1
	c0-0.5-0.1-0.8-0.4-1.1c-0.3-0.3-0.6-0.4-1.1-0.4c-0.3,0-0.7,0.1-1,0.2c-0.3,0.2-0.7,0.3-1,0.6l-0.4-0.9c0.8-0.5,1.6-0.8,2.5-0.8
	s1.5,0.2,2,0.7s0.7,1.1,0.7,1.9v2.3c0,0.2,0.1,0.4,0.4,0.4v1.1c-0.1,0-0.2,0-0.3,0s-0.2,0-0.3,0c-0.3,0-0.5-0.1-0.6-0.2
	c-0.1-0.1-0.2-0.3-0.3-0.5V8c-0.3,0.4-0.6,0.7-1,0.9C20.2,9.1,19.8,9.2,19.3,9.2z M19.7,8.2c0.3,0,0.6-0.1,0.9-0.2
	c0.3-0.1,0.5-0.3,0.7-0.5c0.2-0.1,0.3-0.3,0.3-0.5V6.3c-0.2-0.1-0.5-0.2-0.7-0.2C20.5,6,20.3,6,20.1,6c-0.5,0-0.9,0.1-1.2,0.3
	c-0.3,0.2-0.5,0.5-0.5,0.8c0,0.3,0.1,0.6,0.3,0.8C19,8.1,19.3,8.2,19.7,8.2z M24,5.9c0-0.4,0.1-0.9,0.2-1.2c0.2-0.4,0.4-0.7,0.6-1
	c0.3-0.3,0.6-0.5,1-0.7c0.4-0.2,0.8-0.3,1.3-0.3c0.6,0,1.2,0.1,1.7,0.4s0.8,0.7,1.1,1.1l-1.3,0.4C28.4,4.3,28.2,4.1,28,4
	c-0.3-0.2-0.5-0.2-0.9-0.2c-0.3,0-0.5,0.1-0.7,0.2c-0.2,0.1-0.4,0.3-0.6,0.4c-0.2,0.2-0.3,0.4-0.4,0.7c-0.1,0.3-0.1,0.5-0.1,0.9
	c0,0.3,0,0.6,0.1,0.9s0.2,0.5,0.4,0.7c0.2,0.2,0.4,0.3,0.6,0.5c0.2,0.1,0.5,0.2,0.7,0.2s0.3,0,0.5-0.1c0.2,0,0.3-0.1,0.4-0.2
	c0.1-0.1,0.3-0.2,0.3-0.3c0.1-0.1,0.2-0.2,0.2-0.3l1.3,0.4c-0.2,0.5-0.6,0.9-1,1.2c-0.5,0.3-1.1,0.4-1.7,0.4c-0.5,0-0.9-0.1-1.3-0.3
	s-0.7-0.4-1-0.7c-0.3-0.3-0.5-0.7-0.7-1C24.1,6.8,24,6.4,24,5.9z M35.5,9.1l-2-2.9l-1,1v1.9h-1.3V0.3h1.3v5.6l2.9-3.1h1.4l-2.4,2.6
	l2.5,3.7H35.5z"/>
<path class="st1" d="M4.7,1.7L4.1,1.1l-3.9,4l3.9,4l0.6-0.6L1.4,5.1L4.7,1.7z"/>
</svg>
