<svg width="48" height="35" viewBox="0 0 48 35" fill="none" xmlns="http://www.w3.org/2000/svg">
<path d="M23.8099 0.848145C10.7497 0.848145 0.168945 8.49565 0.168945 17.9241C0.168945 27.3525 10.7497 35 23.8099 35C36.87 35 47.4508 27.3525 47.4508 17.9241C47.4508 8.49565 36.87 0.848145 23.8099 0.848145Z" fill="#592C82"/>
<path d="M23.8099 2.20984C36.1018 2.20984 46.0889 9.2637 46.0889 17.9239C46.0889 26.5841 36.1018 33.6379 23.8099 33.6379C11.518 33.6379 1.53088 26.5841 1.53088 17.9239C1.53088 9.2637 11.5355 2.20984 23.8099 2.20984Z" fill="white"/>
<path d="M31.2482 11.8828C31.7894 12.2495 32.2783 12.686 32.6624 13.1923C32.9593 13.5764 33.1688 13.9606 33.3259 14.3447H36.1894C35.0545 12.9653 33.2037 12.0923 31.2482 11.8828Z" fill="#592C82"/>
<path d="M20.9645 4.98643C25.3644 5.09119 28.9612 6.52291 31.1786 8.7578C31.3183 8.4959 31.4405 8.25146 31.4929 7.9721C32.0865 5.52769 28.6469 3.65946 23.8105 3.8166C21.5756 3.88644 19.4455 4.37532 17.7344 5.12611C18.7994 5.02135 19.882 4.95151 20.9645 4.98643Z" fill="#592C82"/>
<path d="M23.6361 10.3466L26.6742 11.6211C26.6916 11.6211 24.5615 13.0878 23.6361 10.3466Z" fill="#592C82"/>
<path d="M34.8104 5.84167C34.985 6.3131 35.0549 6.8369 34.985 7.39562C34.8628 8.30354 34.4089 9.14162 33.7454 9.82256C35.0374 10.2765 36.8882 11.1495 38.4421 12.6162L37.5168 13.367C39.4024 14.5368 41.6897 16.5971 41.6897 16.5971L40.2056 16.6494L39.8389 16.6669L39.6294 17.1383C39.6294 17.1383 40.5024 17.5224 41.0786 18.5002C41.0437 18.6574 40.9738 18.832 40.8865 19.0066C40.45 19.9145 39.5247 20.6478 38.5644 20.9446C38.7913 20.4557 38.931 19.9319 38.931 19.4256C38.931 19.3732 38.931 19.3208 38.931 19.2685C38.3548 18.5526 37.2025 18.2907 35.8057 18.6399C33.7279 19.1812 31.8946 20.9097 31.5803 22.5684C31.8422 23.3716 32.3486 24.2446 33.2565 24.9779C33.7803 25.0827 34.3914 25.0477 35.0549 24.8731C35.1946 24.8382 35.3168 24.8033 35.4565 24.7509C34.7057 26.0255 33.5359 26.881 32.366 27.4398C31.2661 27.3699 30.3581 27.1255 29.6248 26.8461C29.6597 26.6541 29.6772 26.4795 29.6772 26.2874C29.747 24.4017 28.7867 22.6906 27.2852 21.6779L29.8169 19.6177C29.3804 19.705 28.909 19.7748 28.455 19.7748C25.3646 19.8621 23.0948 18.0463 23.3741 15.7415C23.3916 15.5669 23.444 15.3749 23.4789 15.2003C22.1868 16.6494 20.7027 19.4954 23.6709 23.4589C27.4074 28.4175 25.9407 31.2984 24.9455 32.2413C35.7009 31.7698 44.2563 25.5366 44.2563 17.924C44.3087 12.8432 40.5199 8.39084 34.8104 5.84167Z" fill="#592C82"/>
<path d="M18.4156 6.54004C10.0697 6.54004 3.31262 11.6384 3.31262 17.924C3.31262 21.835 5.49513 25.3794 9.05698 27.981C8.83 27.1778 8.69032 26.3572 8.63794 25.5017C8.51572 23.4937 8.89984 21.5731 9.703 19.8097C9.703 19.897 9.703 19.9843 9.703 20.0716C10.0871 26.4445 15.4648 31.4381 22.3266 32.346C19.2536 29.1159 17.333 24.9255 17.4029 20.7525C17.4727 17.1034 19.0441 14.1701 21.5584 12.3368C22.1695 12.6685 22.8853 12.8257 23.5837 12.7034C23.6536 12.686 23.7234 12.6685 23.8107 12.6511C22.9377 12.0923 22.2742 11.3416 22.0822 10.5384C21.9774 10.1368 22.0123 9.75269 22.1346 9.43841C22.1346 9.43841 24.2298 8.26858 27.6345 10.2416C28.263 10.2066 28.9091 10.2066 29.5725 10.259C26.8138 7.97176 22.833 6.54004 18.4156 6.54004Z" fill="#592C82"/>
<path d="M43.2782 29.919H42.9115V30.9492H42.5623V29.919H42.1957V29.6397H43.2957V29.919H43.2782ZM45.1464 30.9492H44.7972V29.919H44.7623L44.448 30.6349H44.2036L43.8718 29.9016H43.8195V30.9317H43.4877V29.6222H44.0639L44.3258 30.2682L44.6052 29.6222H45.1639V30.9492H45.1464Z" fill="white"/>
</svg>
