<?xml version="1.0" encoding="UTF-8"?><svg id="Layer_1" xmlns="http://www.w3.org/2000/svg" viewBox="0 0 426.36 305.29"><defs><style>.cls-1{fill:#fff;}.cls-2{fill:#592c82;}</style></defs><polygon class="cls-2" points="101.7 26.33 82.02 0 63.49 0 63.49 41.25 77.96 41.25 77.96 14.85 98.42 41.25 116.16 41.25 116.16 0 101.7 0 101.7 26.33"/><path class="cls-2" d="M171.43,0h-35.71c-4.83,0-8.74,3.91-8.74,8.74v23.76c0,4.83,3.91,8.74,8.74,8.74h35.71c4.83,0,8.74-3.91,8.74-8.74V8.74c0-4.83-3.91-8.74-8.74-8.74Zm-7.04,29.66c0,.92-.75,1.67-1.67,1.67h-18.28c-.92,0-1.67-.75-1.67-1.67V11.16c0-.92,.75-1.67,1.67-1.67h18.28c.92,0,1.67,.75,1.67,1.67V29.66Z"/><path class="cls-2" d="M235.82,0h-44.83V41.25h15.78v-13.08h9.07l10.47,13.08h18.25l-10.47-13.08h1.72c4.83,0,8.74-3.91,8.74-8.74V8.74c0-4.83-3.91-8.74-8.74-8.74Zm-29.05,8.93h20.34c.92,0,1.67,.75,1.67,1.67v6.55c0,.92-.75,1.67-1.67,1.67h-20.34V8.93Z"/><polygon class="cls-2" points="252.12 9.72 269.43 9.72 269.43 41.25 285.21 41.25 285.21 9.72 302.53 9.72 302.53 0 252.12 0 252.12 9.72"/><polygon class="cls-2" points="347.09 0 347.09 16.02 325.97 16.02 325.97 0 310.19 0 310.19 41.25 325.97 41.25 325.97 26.53 347.09 26.53 347.09 41.25 362.87 41.25 362.87 0 347.09 0"/><polygon class="cls-2" points="79.28 52.47 63.49 52.47 63.49 93.72 106.63 93.72 106.63 83.62 79.28 83.62 79.28 52.47"/><path class="cls-2" d="M43.94,52.47H8.74c-4.83,0-8.74,3.91-8.74,8.74v32.51H15.78v-12.11h21.12v12.11h15.78V61.22c0-4.83-3.91-8.74-8.74-8.74Zm-7.04,20.07H15.78v-8.91c0-.92,.75-1.67,1.67-1.67h17.77c.92,0,1.67,.75,1.67,1.67v8.91Z"/><path class="cls-2" d="M157,52.47h-35.19c-4.83,0-8.74,3.91-8.74,8.74v32.51h15.78v-12.11h21.12v12.11h15.78V61.22c0-4.83-3.91-8.74-8.74-8.74Zm-7.04,20.07h-21.12v-8.91c0-.92,.75-1.67,1.67-1.67h17.77c.92,0,1.67,.75,1.67,1.67v8.91Z"/><path class="cls-2" d="M284.76,52.47h-35.19c-4.83,0-8.74,3.91-8.74,8.74v32.51h15.78v-12.11h21.12v12.11h15.78V61.22c0-4.83-3.91-8.74-8.74-8.74Zm-7.04,20.07h-21.12v-8.91c0-.92,.75-1.67,1.67-1.67h17.77c.92,0,1.67,.75,1.67,1.67v8.91Z"/><path class="cls-2" d="M417.62,52.47h-35.19c-4.83,0-8.74,3.91-8.74,8.74v32.51h15.78v-12.11h21.12v12.11h15.78V61.22c0-4.83-3.91-8.74-8.74-8.74Zm-7.04,20.07h-21.12v-8.91c0-.92,.75-1.67,1.67-1.67h17.77c.92,0,1.67,.75,1.67,1.67v8.91Z"/><polygon class="cls-2" points="333.59 68.91 320.1 52.47 304.32 52.47 304.32 93.72 319.69 93.72 319.69 68.67 333.59 85.06 347.5 68.67 347.5 93.72 362.87 93.72 362.87 52.47 347.09 52.47 333.59 68.91"/><path class="cls-2" d="M221.27,52.47h-44.71v41.25h44.71c4.83,0,8.74-3.91,8.74-8.74v-3.67c0-3.72-2.32-6.88-5.59-8.15,3.27-1.27,5.59-4.43,5.59-8.15v-3.8c0-4.83-3.91-8.74-8.74-8.74Zm-7.04,30.91c0,.92-.74,1.66-1.66,1.66h-20.23v-7.83h20.23c.92,0,1.66,.74,1.66,1.66v4.51Zm0-15.93c0,.92-.74,1.66-1.66,1.66h-20.23v-8.37h20.23c.92,0,1.66,.74,1.66,1.66v5.05Z"/><path class="cls-2" d="M213.15,109.75c-74.78,0-135.4,43.77-135.4,97.77s60.62,97.77,135.4,97.77,135.4-43.77,135.4-97.77-60.62-97.77-135.4-97.77h0Z"/><path class="cls-1" d="M213.15,117.55c70.36,0,127.6,40.36,127.6,89.97s-57.24,89.97-127.6,89.97-127.6-40.36-127.6-89.97,57.24-89.97,127.6-89.97"/><g><path class="cls-2" d="M255.67,172.96c3.14,2.09,5.9,4.58,8.11,7.45,1.66,2.16,2.91,4.39,3.77,6.65h16.44c-6.43-7.95-17.09-12.94-28.31-14.1Z"/><path class="cls-2" d="M196.77,133.44c25.25,.59,45.79,8.83,58.52,21.63,.84-1.46,1.47-2.94,1.84-4.46,3.37-14.04-16.32-24.68-43.98-23.78-12.78,.42-25.02,3.24-34.83,7.53,6.1-.74,12.27-1.07,18.45-.93Z"/><path class="cls-2" d="M212.12,164.13l17.45,7.34s-12.15,8.35-17.45-7.34Z"/><path class="cls-2" d="M276.16,138.34c1.01,2.69,1.4,5.68,.99,8.87-.65,5.18-3.26,10.02-7.07,13.92,7.41,2.65,17.97,7.55,26.94,16.04l-5.27,4.29c10.77,6.7,23.9,18.54,23.9,18.54l-8.47,.26s.01,0,.02,0l-2.08,.05-1.17,2.68s5.03,2.19,8.31,7.77c-.24,.95-.58,1.92-1.06,2.91-2.52,5.2-7.81,9.43-13.3,11.13,1.32-2.76,2.08-5.76,2.08-8.67,0-.32-.02-.63-.04-.93-3.33-4.06-9.92-5.64-17.91-3.58-11.85,3.06-22.42,12.98-24.24,22.53,1.55,4.58,4.43,9.55,9.65,13.83,2.99,.56,6.5,.4,10.34-.59,.77-.2,1.53-.42,2.28-.68-4.3,7.3-10.99,12.17-17.71,15.41-6.26-.4-11.52-1.8-15.69-3.45,.16-1.05,.27-2.13,.31-3.22,.43-10.81-5.09-20.65-13.7-26.44l14.52-11.81c-2.54,.53-5.16,.86-7.83,.93-17.67,.46-30.69-9.9-29.07-23.15,.13-1.05,.35-2.08,.65-3.1-7.38,8.26-15.93,24.64,1.12,47.29,21.42,28.45,13.01,44.87,7.34,50.32,61.61-2.68,110.57-38.42,110.57-81.99,0-29.01-21.71-54.56-54.41-69.18Z"/><path class="cls-2" d="M182.2,142.33c-47.75,0-86.47,29.19-86.47,65.2,0,22.39,12.54,42.69,32.89,57.6-1.28-4.58-2.11-9.34-2.41-14.24-.69-11.47,1.54-22.52,6.1-32.6,.02,.49,.02,.97,.05,1.46,2.2,36.45,33.04,65.14,72.29,70.34-17.6-18.52-28.59-42.54-28.16-66.35,.38-20.86,9.44-37.69,23.85-48.22,3.5,1.93,7.57,2.78,11.57,2.12,.43-.07,.84-.18,1.26-.28-4.97-3.17-8.76-7.55-9.95-12.1-.61-2.34-.44-4.46,.33-6.27,0,0,12.05-6.67,31.52,4.57v.03c3.6-.21,7.3-.19,11.09,.11-15.82-13.11-38.61-21.35-63.97-21.35Z"/></g><path class="cls-2" d="M324.6,276.29h-2.14v5.87h-2.02v-5.87h-2.14v-1.62h6.3v1.62Zm10.7,5.87h-2.01v-5.86h-.22l-1.84,4.1h-1.41l-1.86-4.17h-.27v5.93h-1.9v-7.49h3.26l1.51,3.66,1.57-3.66h3.17v7.49Z"/></svg>